<?xml version="1.0" standalone="no"?>
<!DOCTYPE svg PUBLIC "-//W3C//DTD SVG 20010904//EN"
 "http://www.w3.org/TR/2001/REC-SVG-20010904/DTD/svg10.dtd">
<svg version="1.0" xmlns="http://www.w3.org/2000/svg"
 width="610.000000pt" height="610.000000pt" viewBox="0 0 610.000000 610.000000"
 preserveAspectRatio="xMidYMid meet">
<metadata>
Created by potrace 1.14, written by Peter Selinger 2001-2017
</metadata>
<g transform="translate(0.000000,610.000000) scale(0.100000,-0.100000)"
fill="#000000" stroke="none">
<path d="M2849 6095 c-2 -2 -40 -6 -84 -9 -344 -26 -753 -144 -1094 -316 -169
-85 -446 -264 -536 -347 -11 -10 -43 -36 -70 -58 -72 -56 -268 -255 -351 -355
-232 -279 -396 -563 -531 -920 -22 -57 -63 -184 -68 -210 -2 -8 -10 -40 -19
-70 -8 -30 -17 -66 -20 -80 -3 -14 -12 -61 -21 -104 -17 -90 -20 -109 -31
-186 -4 -30 -9 -68 -11 -85 -8 -59 -10 -482 -3 -555 9 -87 19 -173 26 -212 2
-16 6 -43 9 -60 50 -319 185 -692 364 -1003 72 -124 227 -351 271 -395 3 -3
30 -34 59 -70 69 -82 236 -249 321 -320 36 -30 67 -58 70 -61 3 -4 57 -44 121
-91 261 -190 564 -345 864 -441 99 -32 219 -64 265 -72 19 -3 51 -10 70 -15
42 -11 230 -39 320 -48 89 -9 457 -9 557 0 115 11 168 19 410 64 41 8 259 73
348 105 294 103 612 282 879 495 98 78 321 292 386 369 120 143 207 263 323
445 47 74 183 358 225 470 62 163 88 252 128 425 13 54 44 231 49 277 3 29 8
67 11 83 9 59 12 472 3 560 -13 134 -19 185 -29 240 -5 28 -11 61 -14 75 -5
27 -35 166 -41 190 -14 52 -38 137 -43 150 -3 8 -6 20 -7 25 -12 50 -100 267
-154 380 -196 409 -489 779 -839 1060 -107 86 -276 205 -291 205 -5 0 -11 4
-13 8 -6 16 -332 187 -443 232 -90 36 -133 52 -220 80 -189 60 -408 109 -564
126 -30 3 -64 8 -75 11 -24 5 -502 14 -507 8z"/>
</g>
</svg>
